<mxfile host="app.diagrams.net" agent="Mozilla/5.0 (Windows NT 10.0; Win64; x64) AppleWebKit/537.36 (KHTML, like Gecko) Chrome/126.0.0.0 Safari/537.36 Edg/126.0.0.0" version="24.7.6">
  <diagram name="Page-1" id="OhFsVBcwa4fSyTDN_Lol">
    <mxGraphModel dx="746" dy="459" grid="1" gridSize="10" guides="1" tooltips="1" connect="1" arrows="1" fold="1" page="1" pageScale="1" pageWidth="827" pageHeight="1169" math="0" shadow="0">
      <root>
        <mxCell id="0" />
        <mxCell id="1" parent="0" />
        <mxCell id="pHAnKvG-7HdU97yEkzSE-1" value="" style="shape=ext;double=1;rounded=0;whiteSpace=wrap;html=1;fillColor=#dae8fc;strokeColor=#6c8ebf;" vertex="1" parent="1">
          <mxGeometry x="50" y="40" width="680" height="500" as="geometry" />
        </mxCell>
        <mxCell id="pHAnKvG-7HdU97yEkzSE-9" value="" style="shape=ext;double=1;rounded=0;whiteSpace=wrap;html=1;fillColor=#dae8fc;strokeColor=#6c8ebf;" vertex="1" parent="1">
          <mxGeometry x="50" y="40" width="680" height="500" as="geometry" />
        </mxCell>
        <mxCell id="pHAnKvG-7HdU97yEkzSE-2" value="&lt;b&gt;&lt;font style=&quot;font-size: 20px;&quot;&gt;Repository (/)&amp;nbsp;&lt;/font&gt;&lt;/b&gt;" style="text;strokeColor=none;align=center;fillColor=none;html=1;verticalAlign=middle;whiteSpace=wrap;rounded=0;" vertex="1" parent="1">
          <mxGeometry x="70" y="50" width="140" height="30" as="geometry" />
        </mxCell>
        <mxCell id="pHAnKvG-7HdU97yEkzSE-10" value="" style="rounded=0;whiteSpace=wrap;html=1;fillColor=#ffe6cc;strokeColor=#d79b00;" vertex="1" parent="1">
          <mxGeometry x="80" y="105" width="630" height="415" as="geometry" />
        </mxCell>
        <mxCell id="pHAnKvG-7HdU97yEkzSE-11" value="" style="rounded=0;whiteSpace=wrap;html=1;rotation=90;fillColor=#fff2cc;strokeColor=#d6b656;" vertex="1" parent="1">
          <mxGeometry x="400" y="211.25" width="340" height="237.5" as="geometry" />
        </mxCell>
        <mxCell id="pHAnKvG-7HdU97yEkzSE-12" value="" style="rounded=0;whiteSpace=wrap;html=1;rotation=-90;fillColor=#e1d5e7;strokeColor=#9673a6;" vertex="1" parent="1">
          <mxGeometry x="100.32" y="167.19" width="340" height="325.62" as="geometry" />
        </mxCell>
        <mxCell id="pHAnKvG-7HdU97yEkzSE-13" value="&lt;span style=&quot;font-size: 20px;&quot;&gt;&lt;b&gt;Project (/1/)&lt;/b&gt;&lt;/span&gt;" style="text;strokeColor=none;align=center;fillColor=none;html=1;verticalAlign=middle;whiteSpace=wrap;rounded=0;" vertex="1" parent="1">
          <mxGeometry x="110" y="120" width="120" height="30" as="geometry" />
        </mxCell>
        <mxCell id="pHAnKvG-7HdU97yEkzSE-14" value="&lt;span style=&quot;font-size: 20px;&quot;&gt;&lt;b&gt;Parking-Lot (/1/1/)&lt;/b&gt;&lt;/span&gt;" style="text;strokeColor=none;align=center;fillColor=none;html=1;verticalAlign=middle;whiteSpace=wrap;rounded=0;" vertex="1" parent="1">
          <mxGeometry x="115" y="170" width="185" height="30" as="geometry" />
        </mxCell>
        <mxCell id="pHAnKvG-7HdU97yEkzSE-15" value="&lt;span style=&quot;font-size: 20px;&quot;&gt;&lt;b&gt;Itemz Type 1 (/1/2/)&lt;/b&gt;&lt;/span&gt;" style="text;strokeColor=none;align=center;fillColor=none;html=1;verticalAlign=middle;whiteSpace=wrap;rounded=0;" vertex="1" parent="1">
          <mxGeometry x="458.75" y="174.38" width="185" height="30" as="geometry" />
        </mxCell>
        <mxCell id="pHAnKvG-7HdU97yEkzSE-19" value="" style="endArrow=classic;html=1;rounded=0;strokeColor=#FF0000;entryX=0.735;entryY=0.24;entryDx=0;entryDy=0;entryPerimeter=0;" edge="1" parent="1">
          <mxGeometry width="50" height="50" relative="1" as="geometry">
            <mxPoint x="140" y="200" as="sourcePoint" />
            <mxPoint x="180.10000000000002" y="242.77999999999992" as="targetPoint" />
            <Array as="points">
              <mxPoint x="140" y="242.68" />
            </Array>
          </mxGeometry>
        </mxCell>
        <mxCell id="pHAnKvG-7HdU97yEkzSE-21" value="&lt;span style=&quot;font-size: 20px;&quot;&gt;&lt;b&gt;Itemz 1 (/1/1/1/)&lt;/b&gt;&lt;/span&gt;" style="text;strokeColor=none;align=center;fillColor=none;html=1;verticalAlign=middle;whiteSpace=wrap;rounded=0;" vertex="1" parent="1">
          <mxGeometry x="166.25" y="230" width="185" height="30" as="geometry" />
        </mxCell>
        <mxCell id="pHAnKvG-7HdU97yEkzSE-22" value="" style="endArrow=classic;html=1;rounded=0;strokeColor=#FF0000;entryX=0.735;entryY=0.24;entryDx=0;entryDy=0;entryPerimeter=0;" edge="1" parent="1">
          <mxGeometry width="50" height="50" relative="1" as="geometry">
            <mxPoint x="189.9" y="260" as="sourcePoint" />
            <mxPoint x="230.00000000000003" y="302.7799999999999" as="targetPoint" />
            <Array as="points">
              <mxPoint x="189.9" y="302.68" />
            </Array>
          </mxGeometry>
        </mxCell>
        <mxCell id="pHAnKvG-7HdU97yEkzSE-27" value="&lt;span style=&quot;font-size: 20px;&quot;&gt;&lt;b&gt;Itemz 1_1 (/1/1/1/1/)&lt;/b&gt;&lt;/span&gt;" style="text;strokeColor=none;align=center;fillColor=none;html=1;verticalAlign=middle;whiteSpace=wrap;rounded=0;" vertex="1" parent="1">
          <mxGeometry x="210" y="290" width="146.25" height="30" as="geometry" />
        </mxCell>
        <mxCell id="pHAnKvG-7HdU97yEkzSE-29" value="" style="endArrow=classic;html=1;rounded=0;strokeColor=#FF0000;entryX=0.735;entryY=0.24;entryDx=0;entryDy=0;entryPerimeter=0;" edge="1" parent="1">
          <mxGeometry width="50" height="50" relative="1" as="geometry">
            <mxPoint x="190" y="300" as="sourcePoint" />
            <mxPoint x="230.00000000000003" y="371.38999999999993" as="targetPoint" />
            <Array as="points">
              <mxPoint x="189.9" y="371.29" />
            </Array>
          </mxGeometry>
        </mxCell>
        <mxCell id="pHAnKvG-7HdU97yEkzSE-30" value="&lt;span style=&quot;font-size: 20px;&quot;&gt;&lt;b&gt;Itemz 1_2 (/1/1/1/2/)&lt;/b&gt;&lt;/span&gt;" style="text;strokeColor=none;align=center;fillColor=none;html=1;verticalAlign=middle;whiteSpace=wrap;rounded=0;" vertex="1" parent="1">
          <mxGeometry x="203.13" y="350" width="160" height="30" as="geometry" />
        </mxCell>
        <mxCell id="pHAnKvG-7HdU97yEkzSE-32" value="&lt;b style=&quot;font-size: 20px;&quot;&gt;Itemz 2 (/1/2/2/)&lt;/b&gt;" style="text;html=1;align=center;verticalAlign=middle;whiteSpace=wrap;rounded=0;" vertex="1" parent="1">
          <mxGeometry x="518.75" y="254.38" width="160" height="30" as="geometry" />
        </mxCell>
        <mxCell id="pHAnKvG-7HdU97yEkzSE-33" value="" style="edgeStyle=segmentEdgeStyle;endArrow=classic;html=1;curved=0;rounded=0;endSize=8;startSize=8;fillColor=#f8cecc;strokeColor=#FF0000;" edge="1" parent="1">
          <mxGeometry width="50" height="50" relative="1" as="geometry">
            <mxPoint x="488.75" y="204.38" as="sourcePoint" />
            <mxPoint x="508.75" y="274.38" as="targetPoint" />
            <Array as="points">
              <mxPoint x="488.75" y="274.38" />
            </Array>
          </mxGeometry>
        </mxCell>
        <mxCell id="pHAnKvG-7HdU97yEkzSE-35" value="" style="endArrow=classic;html=1;rounded=0;strokeColor=#FF0000;exitX=0.265;exitY=0.471;exitDx=0;exitDy=0;exitPerimeter=0;" edge="1" parent="1">
          <mxGeometry width="50" height="50" relative="1" as="geometry">
            <mxPoint x="248.73749999999995" y="390" as="sourcePoint" />
            <mxPoint x="268.76" y="423.1" as="targetPoint" />
            <Array as="points">
              <mxPoint x="248.76" y="422.78000000000003" />
            </Array>
          </mxGeometry>
        </mxCell>
        <mxCell id="pHAnKvG-7HdU97yEkzSE-37" value="&lt;span style=&quot;font-size: 20px;&quot;&gt;&lt;b&gt;Itemz 1_2_1 (/1/1/1/2/1/)&lt;/b&gt;&lt;/span&gt;" style="text;strokeColor=none;align=center;fillColor=none;html=1;verticalAlign=middle;whiteSpace=wrap;rounded=0;" vertex="1" parent="1">
          <mxGeometry x="254" y="410" width="160" height="30" as="geometry" />
        </mxCell>
        <mxCell id="pHAnKvG-7HdU97yEkzSE-40" value="" style="curved=1;endArrow=classic;html=1;rounded=0;entryX=0.37;entryY=1.232;entryDx=0;entryDy=0;strokeColor=#0000FF;exitX=0.85;exitY=0.667;exitDx=0;exitDy=0;exitPerimeter=0;entryPerimeter=0;" edge="1" parent="1" target="pHAnKvG-7HdU97yEkzSE-32">
          <mxGeometry width="50" height="50" relative="1" as="geometry">
            <mxPoint x="390" y="436.88" as="sourcePoint" />
            <mxPoint x="568.43" y="300" as="targetPoint" />
            <Array as="points">
              <mxPoint x="450" y="455.62" />
            </Array>
          </mxGeometry>
        </mxCell>
        <mxCell id="pHAnKvG-7HdU97yEkzSE-41" value="" style="curved=1;endArrow=classic;html=1;rounded=0;entryX=0.889;entryY=0.667;entryDx=0;entryDy=0;strokeColor=#0000FF;entryPerimeter=0;" edge="1" parent="1" target="pHAnKvG-7HdU97yEkzSE-27">
          <mxGeometry width="50" height="50" relative="1" as="geometry">
            <mxPoint x="390" y="426" as="sourcePoint" />
            <mxPoint x="558.68" y="270" as="targetPoint" />
            <Array as="points">
              <mxPoint x="440" y="426" />
            </Array>
          </mxGeometry>
        </mxCell>
        <mxCell id="pHAnKvG-7HdU97yEkzSE-42" value="Foundational hierarchy structures" style="text;html=1;align=center;verticalAlign=middle;whiteSpace=wrap;rounded=0;rotation=-90;fontSize=10;fontColor=#FF0000;" vertex="1" parent="1">
          <mxGeometry x="110" y="310" width="120" height="30" as="geometry" />
        </mxCell>
        <mxCell id="pHAnKvG-7HdU97yEkzSE-43" value="&lt;font color=&quot;#0000ff&quot;&gt;Trace relationships&lt;/font&gt;" style="text;html=1;align=center;verticalAlign=middle;whiteSpace=wrap;rounded=0;rotation=-45;fontSize=10;fontColor=#FF0000;" vertex="1" parent="1">
          <mxGeometry x="460" y="360" width="120" height="30" as="geometry" />
        </mxCell>
      </root>
    </mxGraphModel>
  </diagram>
</mxfile>
